<svg xmlns="http://www.w3.org/2000/svg" xmlns:xlink="http://www.w3.org/1999/xlink" version="1.1" data-diagram-type="DESCRIPTION" style="width:2021px;height:517px;background:#FFFFFF;" width="2021px" height="517px" viewBox="0 0 2021 517" zoomAndPan="magnify" preserveAspectRatio="none" contentStyleType="text/css"><?plantuml 1.2026.8?><defs/><g font-family="sans-serif" lengthAdjust="spacing"><g class="title" data-source-line="1"><text x="830.353" y="24.966" fill="#000" font-size="14" textLength="353.723" font-weight="700">JSE target architecture - planned game integration</text></g><!--entity demo--><g class="entity" data-qualified-name="demo" id="ent0001" data-source-line="3"><rect x="1125.62" y="47.068" width="283.409" height="58.136" fill="#F1F1F1" style="stroke:#181818;stroke-width:0.5;" rx="2.5" ry="2.5"/><text x="1135.62" y="72.034" fill="#000" font-size="14" textLength="38.066">demo</text><text x="1135.62" y="91.102" fill="#000" font-size="14" textLength="263.409">TitleScene, ArenaScene, ShowcaseScene</text></g><!--entity core--><g class="entity" data-qualified-name="core" id="ent0002" data-source-line="4"><rect x="446" y="184.208" width="318.661" height="58.136" fill="#F1F1F1" style="stroke:#181818;stroke-width:0.5;" rx="2.5" ry="2.5"/><text x="456" y="209.174" fill="#000" font-size="14" textLength="28.868">core</text><text x="456" y="228.242" fill="#000" font-size="14" textLength="298.661">JseEngine, SceneManager, Scene, EngineHost</text></g><!--entity platform--><g class="entity" data-qualified-name="platform" id="ent0003" data-source-line="5"><rect x="248.79" y="47.068" width="173.075" height="58.136" fill="#F1F1F1" style="stroke:#181818;stroke-width:0.5;" rx="2.5" ry="2.5"/><text x="258.79" y="72.034" fill="#000" font-size="14" textLength="86.408">platform/awt</text><text x="258.79" y="91.102" fill="#000" font-size="14" textLength="153.075">SwingHost, GamePanel</text></g><!--entity input--><g class="entity" data-qualified-name="input" id="ent0004" data-source-line="6"><rect x="227.54" y="305.838" width="177.569" height="58.136" fill="#F1F1F1" style="stroke:#181818;stroke-width:0.5;" rx="2.5" ry="2.5"/><text x="237.54" y="330.804" fill="#000" font-size="14" textLength="34.58">input</text><text x="237.54" y="349.872" fill="#000" font-size="14" textLength="157.569">InputSource, InputState</text></g><!--entity world--><g class="entity" data-qualified-name="world" id="ent0005" data-source-line="7"><rect x="1355.06" y="305.838" width="226.541" height="58.136" fill="#F1F1F1" style="stroke:#181818;stroke-width:0.5;" rx="2.5" ry="2.5"/><text x="1365.06" y="330.804" fill="#000" font-size="14" textLength="37.478">world</text><text x="1365.06" y="349.872" fill="#000" font-size="14" textLength="206.541">World, WorldView, GameObject</text></g><!--entity factory--><g class="entity" data-qualified-name="factory" id="ent0006" data-source-line="8"><rect x="991.9" y="184.208" width="222.845" height="58.136" fill="#F1F1F1" style="stroke:#181818;stroke-width:0.5;" rx="2.5" ry="2.5"/><text x="1001.9" y="209.174" fill="#000" font-size="14" textLength="45.836">factory</text><text x="1001.9" y="228.242" fill="#000" font-size="14" textLength="202.845">EntitySpawner, family factories</text></g><!--entity ai--><g class="entity" data-qualified-name="ai" id="ent0007" data-source-line="9"><rect x="1367.79" y="445.458" width="201.075" height="58.136" fill="#F1F1F1" style="stroke:#181818;stroke-width:0.5;" rx="2.5" ry="2.5"/><text x="1377.79" y="470.424" fill="#000" font-size="14" textLength="11.466">ai</text><text x="1377.79" y="489.492" fill="#000" font-size="14" textLength="181.075">BehaviorStrategy, AiSystem</text></g><!--entity physics--><g class="entity" data-qualified-name="physics" id="ent0008" data-source-line="10"><rect x="1391.78" y="184.208" width="225.085" height="58.136" fill="#F1F1F1" style="stroke:#181818;stroke-width:0.5;" rx="2.5" ry="2.5"/><text x="1401.78" y="209.174" fill="#000" font-size="14" textLength="48.146">physics</text><text x="1401.78" y="228.242" fill="#000" font-size="14" textLength="205.085">MotionSystem, CollisionSystem</text></g><!--entity events--><g class="entity" data-qualified-name="events" id="ent0009" data-source-line="11"><rect x="1805.22" y="445.458" width="202.209" height="58.136" fill="#F1F1F1" style="stroke:#181818;stroke-width:0.5;" rx="2.5" ry="2.5"/><text x="1815.22" y="470.424" fill="#000" font-size="14" textLength="36.61">event</text><text x="1815.22" y="489.492" fill="#000" font-size="14" textLength="182.209">EventBus, listener contracts</text></g><!--entity render--><g class="entity" data-qualified-name="render" id="ent0010" data-source-line="12"><rect x="891.94" y="445.458" width="218.771" height="58.136" fill="#F1F1F1" style="stroke:#181818;stroke-width:0.5;" rx="2.5" ry="2.5"/><text x="901.94" y="470.424" fill="#000" font-size="14" textLength="44.618">render</text><text x="901.94" y="489.492" fill="#000" font-size="14" textLength="198.771">Graphic, Renderer, decorators</text></g><!--entity awtrender--><g class="entity" data-qualified-name="awtrender" id="ent0011" data-source-line="13"><rect x="28.23" y="184.208" width="254.191" height="58.136" fill="#F1F1F1" style="stroke:#181818;stroke-width:0.5;" rx="2.5" ry="2.5"/><text x="38.23" y="209.174" fill="#000" font-size="14" textLength="73.738">render/awt</text><text x="38.23" y="228.242" fill="#000" font-size="14" textLength="234.191">FilledRenderer, WireframeRenderer</text></g><!--entity assets--><g class="entity" data-qualified-name="assets" id="ent0012" data-source-line="14"><rect x="7" y="305.838" width="114.654" height="58.136" fill="#F1F1F1" style="stroke:#181818;stroke-width:0.5;" rx="2.5" ry="2.5"/><text x="17" y="330.804" fill="#000" font-size="14" textLength="40.922">assets</text><text x="17" y="349.872" fill="#000" font-size="14" textLength="94.654">AssetManager</text></g><g class="entity" data-qualified-name="GMN33" id="ent0034" data-source-line="36"><path d="M440.12,303.348 L440.12,366.466 A0,0 0 0 0 440.12,366.466 L886.532,366.466 A0,0 0 0 0 886.532,366.466 L886.532,313.348 L876.532,303.348 L652.46,303.348 L619.07,242.628 L644.46,303.348 L440.12,303.348 A0,0 0 0 0 440.12,303.348" style="stroke:#181818;stroke-width:0.5;" fill="#FEFFDD"/><path d="M876.532,303.348 L876.532,313.348 L886.532,313.348 L876.532,303.348" style="stroke:#181818;stroke-width:0.5;" fill="#FEFFDD"/><text x="446.12" y="322.245" fill="#000" font-size="13" textLength="263.107">Arena rules and theme choice live in demo.</text><text x="446.12" y="339.951" fill="#000" font-size="13" textLength="234.039">Core has no dependency on EventBus.</text><text x="446.12" y="357.657" fill="#000" font-size="13" textLength="425.412">The diagram describes planned code, not completed implementation.</text></g><!--link demo to core--><g class="link" data-entity-1="ent0001" data-entity-2="ent0002" id="lnk13" data-source-line="15" data-link-type="dependency"><path d="M1125.15,97.718 C1060.32,107.798 982.7,120.868 913.33,135.208 C845.31,149.268 774.476,166.889 715.156,182.449" style="stroke:#181818;stroke-width:1;stroke-dasharray:7,7;" fill="none" id="demo-to-core"/><polygon points="710.32,183.718,720.04,185.304,715.156,182.449,718.011,177.565,710.32,183.718" fill="#181818" style="stroke:#181818;stroke-width:1;stroke-linejoin:miter;stroke-miterlimit:10;"/></g><!--link demo to world--><g class="link" data-entity-1="ent0001" data-entity-2="ent0005" id="lnk14" data-source-line="16" data-link-type="dependency"><path d="M1283.14,105.638 C1302.61,139.648 1337.61,197.548 1374.33,242.348 C1392.96,265.068 1412.986,284.778 1431.936,302.068" style="stroke:#181818;stroke-width:1;stroke-dasharray:7,7;" fill="none" id="demo-to-world"/><polygon points="1435.63,305.438,1431.678,296.417,1431.936,302.068,1426.285,302.327,1435.63,305.438" fill="#181818" style="stroke:#181818;stroke-width:1;stroke-linejoin:miter;stroke-miterlimit:10;"/></g><!--link demo to factory--><g class="link" data-entity-1="ent0001" data-entity-2="ent0006" id="lnk15" data-source-line="17" data-link-type="dependency"><path d="M1232.95,105.468 C1205.05,128.458 1169.759,157.539 1141.799,180.569" style="stroke:#181818;stroke-width:1;stroke-dasharray:7,7;" fill="none" id="demo-to-factory"/><polygon points="1137.94,183.748,1147.43,181.113,1141.799,180.569,1142.344,174.938,1137.94,183.748" fill="#181818" style="stroke:#181818;stroke-width:1;stroke-linejoin:miter;stroke-miterlimit:10;"/></g><!--link demo to ai--><g class="link" data-entity-1="ent0001" data-entity-2="ent0007" id="lnk16" data-source-line="18" data-link-type="dependency"><path d="M1259.65,105.288 C1244.28,168.308 1217.06,322.538 1289.33,415.458 C1308.38,439.958 1333.126,452.929 1362.776,461.239" style="stroke:#181818;stroke-width:1;stroke-dasharray:7,7;" fill="none" id="demo-to-ai"/><polygon points="1367.59,462.588,1360.003,456.307,1362.776,461.239,1357.844,464.011,1367.59,462.588" fill="#181818" style="stroke:#181818;stroke-width:1;stroke-linejoin:miter;stroke-miterlimit:10;"/></g><!--link demo to physics--><g class="link" data-entity-1="ent0001" data-entity-2="ent0008" id="lnk17" data-source-line="19" data-link-type="dependency"><path d="M1317.3,105.638 C1357.63,128.628 1409.766,158.362 1450.076,181.342" style="stroke:#181818;stroke-width:1;stroke-dasharray:7,7;" fill="none" id="demo-to-physics"/><polygon points="1454.42,183.818,1448.582,175.886,1450.076,181.342,1444.62,182.836,1454.42,183.818" fill="#181818" style="stroke:#181818;stroke-width:1;stroke-linejoin:miter;stroke-miterlimit:10;"/></g><!--link demo to events--><g class="link" data-entity-1="ent0001" data-entity-2="ent0009" id="lnk18" data-source-line="20" data-link-type="dependency"><path d="M1398.85,105.698 C1470.31,123.618 1559.16,149.878 1634.33,184.208 C1792.61,256.498 1880.07,243.658 1963.33,396.458 C1972.64,413.558 1965.17,427.689 1950.36,441.719" style="stroke:#181818;stroke-width:1;stroke-dasharray:7,7;" fill="none" id="demo-to-events"/><polygon points="1946.73,445.158,1956.015,441.872,1950.36,441.719,1950.513,436.064,1946.73,445.158" fill="#181818" style="stroke:#181818;stroke-width:1;stroke-linejoin:miter;stroke-miterlimit:10;"/></g><!--link demo to render--><g class="link" data-entity-1="ent0001" data-entity-2="ent0010" id="lnk19" data-source-line="21" data-link-type="dependency"><path d="M1125.35,93.768 C1068.71,108.148 1008.85,134.828 974.33,184.208 C918.1,264.618 960.863,385.282 985.633,440.812" style="stroke:#181818;stroke-width:1;stroke-dasharray:7,7;" fill="none" id="demo-to-render"/><polygon points="987.67,445.378,987.657,435.529,985.633,440.812,980.351,438.788,987.67,445.378" fill="#181818" style="stroke:#181818;stroke-width:1;stroke-linejoin:miter;stroke-miterlimit:10;"/></g><!--link core to input--><g class="link" data-entity-1="ent0002" data-entity-2="ent0004" id="lnk20" data-source-line="22" data-link-type="dependency"><path d="M536.47,242.778 C490.73,261.718 435.51,284.566 389.78,303.496" style="stroke:#181818;stroke-width:1;stroke-dasharray:7,7;" fill="none" id="core-to-input"/><polygon points="385.16,305.408,395.006,305.661,389.78,303.496,391.946,298.27,385.16,305.408" fill="#181818" style="stroke:#181818;stroke-width:1;stroke-linejoin:miter;stroke-miterlimit:10;"/></g><!--link platform to core--><g class="link" data-entity-1="ent0003" data-entity-2="ent0002" id="lnk21" data-source-line="23" data-link-type="dependency"><path d="M392.26,105.638 C438.21,128.628 498.068,158.601 543.998,181.581" style="stroke:#181818;stroke-width:1;stroke-dasharray:7,7;" fill="none" id="platform-to-core"/><polygon points="548.47,183.818,542.211,176.214,543.998,181.581,538.631,183.368,548.47,183.818" fill="#181818" style="stroke:#181818;stroke-width:1;stroke-linejoin:miter;stroke-miterlimit:10;"/><text x="487.49" y="150.105" fill="#000" font-size="13" textLength="137.462">pump / paint callbacks</text></g><!--link platform to input--><g class="link" data-entity-1="ent0003" data-entity-2="ent0004" id="lnk22" data-source-line="24" data-link-type="dependency"><path d="M333.22,105.598 C329.56,155.088 322.429,251.422 318.779,300.722" style="stroke:#181818;stroke-width:1;stroke-dasharray:7,7;" fill="none" id="platform-to-input"/><polygon points="318.41,305.708,323.064,297.028,318.779,300.722,315.085,296.437,318.41,305.708" fill="#181818" style="stroke:#181818;stroke-width:1;stroke-linejoin:miter;stroke-miterlimit:10;"/></g><!--link platform to awtrender--><g class="link" data-entity-1="ent0003" data-entity-2="ent0011" id="lnk23" data-source-line="25" data-link-type="dependency"><path d="M266.54,105.698 C250.27,114.008 233.53,123.938 219.33,135.208 C202.03,148.938 189.111,163.996 177.491,179.726" style="stroke:#181818;stroke-width:1;stroke-dasharray:7,7;" fill="none" id="platform-to-awtrender"/><polygon points="174.52,183.748,183.085,178.886,177.491,179.726,176.65,174.132,174.52,183.748" fill="#181818" style="stroke:#181818;stroke-width:1;stroke-linejoin:miter;stroke-miterlimit:10;"/><text x="220.33" y="150.105" fill="#000" font-size="13" textLength="88.686">prepare frame</text></g><!--link awtrender to render--><g class="link" data-entity-1="ent0011" data-entity-2="ent0010" id="lnk24" data-source-line="26" data-link-type="dependency"><path d="M157.03,242.568 C160.76,277.498 172.62,336.018 210.33,366.458 C312.82,449.218 694.371,467.998 886.511,472.238" style="stroke:#181818;stroke-width:1;stroke-dasharray:7,7;" fill="none" id="awtrender-to-render"/><polygon points="891.51,472.348,882.6,468.15,886.511,472.238,882.424,476.148,891.51,472.348" fill="#181818" style="stroke:#181818;stroke-width:1;stroke-linejoin:miter;stroke-miterlimit:10;"/></g><!--link awtrender to assets--><g class="link" data-entity-1="ent0011" data-entity-2="ent0012" id="lnk25" data-source-line="27" data-link-type="dependency"><path d="M133.76,242.628 C119.36,261.558 103.518,282.389 89.078,301.359" style="stroke:#181818;stroke-width:1;stroke-dasharray:7,7;" fill="none" id="awtrender-to-assets"/><polygon points="86.05,305.338,94.684,300.599,89.078,301.359,88.318,295.754,86.05,305.338" fill="#181818" style="stroke:#181818;stroke-width:1;stroke-linejoin:miter;stroke-miterlimit:10;"/></g><!--link factory to world--><g class="link" data-entity-1="ent0006" data-entity-2="ent0005" id="lnk26" data-source-line="28" data-link-type="dependency"><path d="M1190.29,242.778 C1248.06,261.718 1318.879,284.921 1376.649,303.851" style="stroke:#181818;stroke-width:1;stroke-dasharray:7,7;" fill="none" id="factory-to-world"/><polygon points="1381.4,305.408,1374.093,298.804,1376.649,303.851,1371.602,306.407,1381.4,305.408" fill="#181818" style="stroke:#181818;stroke-width:1;stroke-linejoin:miter;stroke-miterlimit:10;"/></g><!--link factory to render--><g class="link" data-entity-1="ent0006" data-entity-2="ent0010" id="lnk27" data-source-line="29" data-link-type="dependency"><path d="M1092.22,242.518 C1072.6,292.388 1033.86,390.825 1014.25,440.675" style="stroke:#181818;stroke-width:1;stroke-dasharray:7,7;" fill="none" id="factory-to-render"/><polygon points="1012.42,445.328,1019.437,438.417,1014.25,440.675,1011.992,435.488,1012.42,445.328" fill="#181818" style="stroke:#181818;stroke-width:1;stroke-linejoin:miter;stroke-miterlimit:10;"/><text x="1069.24" y="340.305" fill="#000" font-size="13" textLength="113.035">object appearance</text></g><!--link world to render--><g class="link" data-entity-1="ent0005" data-entity-2="ent0010" id="lnk28" data-source-line="30" data-link-type="dependency"><path d="M1371.56,364.418 C1291.42,388.038 1182.876,420.024 1102.766,443.634" style="stroke:#181818;stroke-width:1;stroke-dasharray:7,7;" fill="none" id="world-to-render"/><polygon points="1097.97,445.048,1107.734,446.34,1102.766,443.634,1105.472,438.667,1097.97,445.048" fill="#181818" style="stroke:#181818;stroke-width:1;stroke-linejoin:miter;stroke-miterlimit:10;"/><text x="1263.79" y="411.355" fill="#000" font-size="13" textLength="101.556">Graphic contract</text></g><!--link world to ai--><g class="link" data-entity-1="ent0005" data-entity-2="ent0007" id="lnk29" data-source-line="31" data-link-type="dependency"><path d="M1557.62,364.448 C1581.51,377.168 1597.48,394.168 1584.33,415.458 C1576.81,427.628 1570.113,434.651 1557.933,442.371" style="stroke:#181818;stroke-width:1;stroke-dasharray:7,7;" fill="none" id="world-to-ai"/><polygon points="1553.71,445.048,1563.453,443.608,1557.933,442.371,1559.17,436.851,1553.71,445.048" fill="#181818" style="stroke:#181818;stroke-width:1;stroke-linejoin:miter;stroke-miterlimit:10;"/><text x="1590.06" y="411.355" fill="#000" font-size="13" textLength="148.798">Enemy strategy contract</text></g><!--link ai to world--><g class="link" data-entity-1="ent0007" data-entity-2="ent0005" id="lnk31" data-source-line="33" data-link-type="dependency"><path d="M1464.23,445.238 C1463.04,435.788 1461.91,425.188 1461.33,415.458 C1460.3,398.438 1461.256,384.369 1463.166,369.189" style="stroke:#181818;stroke-width:1;stroke-dasharray:7,7;" fill="none" id="ai-to-world"/><polygon points="1463.79,364.228,1458.698,372.658,1463.166,369.189,1466.635,373.657,1463.79,364.228" fill="#181818" style="stroke:#181818;stroke-width:1;stroke-linejoin:miter;stroke-miterlimit:10;"/><text x="1462.33" y="411.355" fill="#000" font-size="13" textLength="113.62">WorldView, Enemy</text></g><!--link world to events--><g class="link" data-entity-1="ent0005" data-entity-2="ent0009" id="lnk30" data-source-line="32" data-link-type="dependency"><path d="M1582,354.238 C1633.29,364.118 1694.15,378.098 1747.33,396.458 C1784.73,409.378 1820.389,426.513 1850.949,442.653" style="stroke:#181818;stroke-width:1;stroke-dasharray:7,7;" fill="none" id="world-to-events"/><polygon points="1855.37,444.988,1849.28,437.248,1850.949,442.653,1845.544,444.322,1855.37,444.988" fill="#181818" style="stroke:#181818;stroke-width:1;stroke-linejoin:miter;stroke-miterlimit:10;"/><text x="1793.37" y="411.355" fill="#000" font-size="13" textLength="161.772">committed lifecycle events</text></g><!--link physics to world--><g class="link" data-entity-1="ent0008" data-entity-2="ent0005" id="lnk32" data-source-line="34" data-link-type="dependency"><path d="M1495.8,242.628 C1490.1,261.558 1484.071,281.58 1478.361,300.55" style="stroke:#181818;stroke-width:1;stroke-dasharray:7,7;" fill="none" id="physics-to-world"/><polygon points="1476.92,305.338,1483.344,297.873,1478.361,300.55,1475.684,295.567,1476.92,305.338" fill="#181818" style="stroke:#181818;stroke-width:1;stroke-linejoin:miter;stroke-miterlimit:10;"/></g><?plantuml-src RLJ1Rjim3BtxAuYUi_I-mu2soBeLA3RCnNhnXP4PMwjD6HAJm7y_Id9K1-r94lKUnKTI52i3mLEz0q7VaG1wqriX8qTFy0Mc0PcfXGv70ij2dKUnZglmPdb2ZoCODqwEYQMMMNrvvI9t0rNb0cvQ6bt3B_6nsX3J1kuyCIxxkdTdWo5VtG06YFWrtpXF3Jy5sd5d4oL2dv6n8x-SDf0lVxWWoKaahPse5ZauFzxYMHgkpvQxYDt0euhxZKn3ebrWQwfgFIhdPrngT_H6Nyi7GSaX9yYQStP-Q1j-ZSi6qlBNqZa_zsl_J_EKY0ct9XxGYFDpmpiMAtCzuPcZoWEETfWXNriAYRs0rtoq3TzJZoVhV2rQB-fcJRYjvo0q9XRQgyJqSx0cDFpiOcqpRWCFRXXiA8QSd0nTi-caYmORb_jZs82IHElXjG2ipnl9aIRS5LDRe2NVyAF7gRTc0t-I8MfjIQk7gYnpC_8ZDvVoknq6Qj_9hzRJGLkJBgQi-ImVtM089AhyBgvBFsLqkgXY8y9s-oqtKpdbcfNZfGZ5eFaj-qlAYc59H3cNgFJ7nNFkf4iRbjVXAqp7SO9Rc51_8XWSXZsQjt0D_OHTb4SNdlJR4gJyLEytgq2kZKiY5eahzMjBSUzINmDE4-bmO4DL0b-3bdgN_bXXqEhzZccS8Ioj-naifr2XMihHYkY46ko1p6nq0YtvLLSbM4MkFc3oNorrMIbY9mHx9-96S8TSyZIdm1y7qfxW5gGddOIcTzQGldcAKp6Dgstr48lKQ--mKyiKrRAPmJ5S_iQsUka9MejT79mj1UFjdaAPiiQrEbWqZ3HK1ugwRDoCoazpTrkfsuYW_m00?></g></svg>