<svg xmlns="http://www.w3.org/2000/svg" xmlns:xlink="http://www.w3.org/1999/xlink" version="1.1" data-diagram-type="DESCRIPTION" style="width:1567px;height:649px;background:#FFFFFF;" width="1567px" height="649px" viewBox="0 0 1567 649" zoomAndPan="magnify" preserveAspectRatio="none" contentStyleType="text/css"><?plantuml 1.2026.8?><defs/><g font-family="sans-serif" lengthAdjust="spacing"><g class="title" data-source-line="1"><text x="669.039" y="24.966" fill="#000" font-size="14" textLength="222.235" font-weight="700">JSE 0.1.0 - implemented runtime</text></g><!--entity demo--><g class="entity" data-qualified-name="demo" id="ent0001" data-source-line="3"><rect x="891.13" y="47.068" width="339.969" height="58.136" fill="#F1F1F1" style="stroke:#181818;stroke-width:0.5;" rx="2.5" ry="2.5"/><text x="901.13" y="72.034" fill="#000" font-size="14" textLength="38.066">demo</text><text x="901.13" y="91.102" fill="#000" font-size="14" textLength="319.969">LaunchSettings, PreviewScene, DemoApplication</text></g><!--entity core--><g class="entity" data-qualified-name="core" id="ent0002" data-source-line="4"><rect x="359.91" y="321.338" width="272.419" height="58.136" fill="#F1F1F1" style="stroke:#181818;stroke-width:0.5;" rx="2.5" ry="2.5"/><text x="369.91" y="346.304" fill="#000" font-size="14" textLength="28.868">core</text><text x="369.91" y="365.372" fill="#000" font-size="14" textLength="252.419">JseEngine, SceneManager, EngineHost</text></g><!--entity input--><g class="entity" data-qualified-name="input" id="ent0003" data-source-line="5"><rect x="115.39" y="458.478" width="265.447" height="58.136" fill="#F1F1F1" style="stroke:#181818;stroke-width:0.5;" rx="2.5" ry="2.5"/><text x="125.39" y="483.444" fill="#000" font-size="14" textLength="34.58">input</text><text x="125.39" y="502.512" fill="#000" font-size="14" textLength="245.447">InputSource, InputState, GameAction</text></g><!--entity platform--><g class="entity" data-qualified-name="platform" id="ent0004" data-source-line="6"><rect x="297.64" y="184.208" width="300.951" height="58.136" fill="#F1F1F1" style="stroke:#181818;stroke-width:0.5;" rx="2.5" ry="2.5"/><text x="307.64" y="209.174" fill="#000" font-size="14" textLength="86.408">platform/awt</text><text x="307.64" y="228.242" fill="#000" font-size="14" textLength="280.951">SwingHost, GamePanel, SwingInputSource</text></g><!--entity render--><g class="entity" data-qualified-name="render" id="ent0005" data-source-line="7"><rect x="833.79" y="458.478" width="232.645" height="58.136" fill="#F1F1F1" style="stroke:#181818;stroke-width:0.5;" rx="2.5" ry="2.5"/><text x="843.79" y="483.444" fill="#000" font-size="14" textLength="44.618">render</text><text x="843.79" y="502.512" fill="#000" font-size="14" textLength="212.645">Graphic, Renderer, RenderMode</text></g><!--entity awtrender--><g class="entity" data-qualified-name="awtrender" id="ent0006" data-source-line="8"><rect x="667.77" y="321.338" width="364.693" height="58.136" fill="#F1F1F1" style="stroke:#181818;stroke-width:0.5;" rx="2.5" ry="2.5"/><text x="677.77" y="346.304" fill="#000" font-size="14" textLength="73.738">render/awt</text><text x="677.77" y="365.372" fill="#000" font-size="14" textLength="344.693">FrameRenderer, FilledRenderer, WireframeRenderer</text></g><!--entity assets--><g class="entity" data-qualified-name="assets" id="ent0007" data-source-line="9"><rect x="1101.1" y="458.478" width="174.041" height="58.136" fill="#F1F1F1" style="stroke:#181818;stroke-width:0.5;" rx="2.5" ry="2.5"/><text x="1111.1" y="483.444" fill="#000" font-size="14" textLength="40.922">assets</text><text x="1111.1" y="502.512" fill="#000" font-size="14" textLength="154.041">AssetManager, SpriteId</text></g><!--entity math--><g class="entity" data-qualified-name="math" id="ent0008" data-source-line="10"><rect x="1035.13" y="577.608" width="127.968" height="58.136" fill="#F1F1F1" style="stroke:#181818;stroke-width:0.5;" rx="2.5" ry="2.5"/><text x="1045.13" y="602.574" fill="#000" font-size="14" textLength="34.65">math</text><text x="1045.13" y="621.642" fill="#000" font-size="14" textLength="107.968">Vec2, Rect, Rgba</text></g><!--entity settings--><g class="entity" data-qualified-name="settings" id="ent0009" data-source-line="11"><rect x="1426.93" y="192.238" width="120.384" height="42.068" fill="#F1F1F1" style="stroke:#181818;stroke-width:0.5;" rx="2.5" ry="2.5"/><polygon points="1530.314,197.238,1530.314,211.238,1542.314,211.238,1542.314,203.238,1536.314,197.238,1530.314,197.238" fill="#F1F1F1" style="stroke:#181818;stroke-width:0.5;stroke-linejoin:miter;stroke-miterlimit:10;"/><line x1="1536.314" y1="197.238" x2="1536.314" y2="203.238" style="stroke:#181818;stroke-width:0.5;"/><line x1="1542.314" y1="203.238" x2="1536.314" y2="203.238" style="stroke:#181818;stroke-width:0.5;"/><text x="1436.93" y="220.204" fill="#000" font-size="14" textLength="90.384">jse.properties</text></g><g class="entity" data-qualified-name="GMN27" id="ent0028" data-source-line="30"><path d="M415.65,464.838 L415.65,510.25 A0,0 0 0 0 415.65,510.25 L798.583,510.25 A0,0 0 0 0 798.583,510.25 L798.583,474.838 L788.583,464.838 L593,464.838 L519.39,379.738 L585,464.838 L415.65,464.838 A0,0 0 0 0 415.65,464.838" style="stroke:#181818;stroke-width:0.5;" fill="#FEFFDD"/><path d="M788.583,464.838 L788.583,474.838 L798.583,474.838 L788.583,464.838" style="stroke:#181818;stroke-width:0.5;" fill="#FEFFDD"/><text x="421.65" y="483.735" fill="#000" font-size="13" textLength="235.755">No World, AI or EventBus dependency.</text><text x="421.65" y="501.441" fill="#000" font-size="13" textLength="361.933">Scene transitions and shutdown run on the starting thread.</text></g><!--link demo to settings--><g class="link" data-entity-1="ent0001" data-entity-2="ent0009" id="lnk10" data-source-line="12" data-link-type="dependency"><path d="M1231.42,87.648 C1287.21,95.898 1348.16,110.278 1400.12,135.208 C1428.32,148.728 1450.923,170.405 1467.003,188.345" style="stroke:#181818;stroke-width:1;stroke-dasharray:7,7;" fill="none" id="demo-to-settings"/><polygon points="1470.34,192.068,1467.312,182.696,1467.003,188.345,1461.354,188.036,1470.34,192.068" fill="#181818" style="stroke:#181818;stroke-width:1;stroke-linejoin:miter;stroke-miterlimit:10;"/><text x="1430.6" y="150.105" fill="#000" font-size="13" textLength="120.627">typed configuration</text></g><!--link demo to core--><g class="link" data-entity-1="ent0001" data-entity-2="ent0002" id="lnk11" data-source-line="13" data-link-type="dependency"><path d="M921.81,105.698 C864.07,122.158 798.68,147.148 747.12,184.208 C698.42,219.198 713.77,256.298 665.12,291.338 C648.38,303.398 633.579,311.267 613.959,319.037" style="stroke:#181818;stroke-width:1;stroke-dasharray:7,7;" fill="none" id="demo-to-core"/><polygon points="609.31,320.878,619.151,321.283,613.959,319.037,616.205,313.845,609.31,320.878" fill="#181818" style="stroke:#181818;stroke-width:1;stroke-linejoin:miter;stroke-miterlimit:10;"/><text x="748.12" y="218.665" fill="#000" font-size="13" textLength="114.036">compose and start</text></g><!--link demo to platform--><g class="link" data-entity-1="ent0001" data-entity-2="ent0004" id="lnk12" data-source-line="14" data-link-type="dependency"><path d="M890.65,84.238 C760.54,91.798 593.36,106.748 531.12,135.208 C507.15,146.158 488.853,163.013 473.683,180.163" style="stroke:#181818;stroke-width:1;stroke-dasharray:7,7;" fill="none" id="demo-to-platform"/><polygon points="470.37,183.908,479.329,179.817,473.683,180.163,473.337,174.517,470.37,183.908" fill="#181818" style="stroke:#181818;stroke-width:1;stroke-linejoin:miter;stroke-miterlimit:10;"/><text x="532.12" y="150.105" fill="#000" font-size="13" textLength="128.076">desktop composition</text></g><!--link demo to render--><g class="link" data-entity-1="ent0001" data-entity-2="ent0005" id="lnk13" data-source-line="15" data-link-type="dependency"><path d="M1060.08,105.548 C1058.74,146.578 1056.71,224.778 1058.12,291.338 C1059.41,352.318 1094.89,376.418 1063.12,428.478 C1055.7,440.618 1049.062,447.633 1036.982,455.363" style="stroke:#181818;stroke-width:1;stroke-dasharray:7,7;" fill="none" id="demo-to-render"/><polygon points="1032.77,458.058,1042.507,456.576,1036.982,455.363,1038.195,449.838,1032.77,458.058" fill="#181818" style="stroke:#181818;stroke-width:1;stroke-linejoin:miter;stroke-miterlimit:10;"/><text x="1059.12" y="287.235" fill="#000" font-size="13" textLength="108.108">RectangleGraphic</text></g><!--link demo to awtrender--><g class="link" data-entity-1="ent0001" data-entity-2="ent0006" id="lnk14" data-source-line="16" data-link-type="dependency"><path d="M998.24,105.658 C964.73,123.788 925.34,150.248 900.12,184.208 C869.38,225.578 858.024,280.97 853.454,316.13" style="stroke:#181818;stroke-width:1;stroke-dasharray:7,7;" fill="none" id="demo-to-awtrender"/><polygon points="852.81,321.088,857.937,312.679,853.454,316.13,850.003,311.647,852.81,321.088" fill="#181818" style="stroke:#181818;stroke-width:1;stroke-linejoin:miter;stroke-miterlimit:10;"/><text x="901.12" y="218.665" fill="#000" font-size="13" textLength="133.159">renderer composition</text></g><!--link demo to assets--><g class="link" data-entity-1="ent0001" data-entity-2="ent0007" id="lnk15" data-source-line="17" data-link-type="dependency"><path d="M1082.81,105.678 C1109.18,142.128 1152.57,208.198 1172.12,272.338 C1191.68,336.548 1191.859,411.372 1190.109,453.102" style="stroke:#181818;stroke-width:1;stroke-dasharray:7,7;" fill="none" id="demo-to-assets"/><polygon points="1189.9,458.098,1194.274,449.273,1190.109,453.102,1186.281,448.938,1189.9,458.098" fill="#181818" style="stroke:#181818;stroke-width:1;stroke-linejoin:miter;stroke-miterlimit:10;"/><text x="1177.82" y="287.235" fill="#000" font-size="13" textLength="138.632">preload before startup</text></g><!--link core to input--><g class="link" data-entity-1="ent0002" data-entity-2="ent0003" id="lnk16" data-source-line="18" data-link-type="dependency"><path d="M443.83,379.898 C401.62,402.898 346.91,432.705 304.73,455.695" style="stroke:#181818;stroke-width:1;stroke-dasharray:7,7;" fill="none" id="core-to-input"/><polygon points="300.34,458.088,310.157,457.293,304.73,455.695,306.328,450.269,300.34,458.088" fill="#181818" style="stroke:#181818;stroke-width:1;stroke-linejoin:miter;stroke-miterlimit:10;"/><text x="387.97" y="424.375" fill="#000" font-size="13" textLength="143.481">snapshot per fixed step</text></g><!--link core to render--><g class="link" data-entity-1="ent0002" data-entity-2="ent0005" id="lnk17" data-source-line="19" data-link-type="dependency"><path d="M545.19,379.848 C575.43,396.258 615.49,416.048 653.12,428.478 C723.06,451.588 743.84,444.258 816.12,458.478 C821.83,459.598 822.779,459.779 828.679,460.969" style="stroke:#181818;stroke-width:1;stroke-dasharray:7,7;" fill="none" id="core-to-render"/><polygon points="833.58,461.958,825.549,456.257,828.679,460.969,823.967,464.1,833.58,461.958" fill="#181818" style="stroke:#181818;stroke-width:1;stroke-linejoin:miter;stroke-miterlimit:10;"/><text x="654.12" y="424.375" fill="#000" font-size="13" textLength="143.104">scene painting contract</text></g><!--link platform to core--><g class="link" data-entity-1="ent0004" data-entity-2="ent0002" id="lnk18" data-source-line="20" data-link-type="extension"><path d="M441.83,242.588 C439.78,257.538 439.31,275.928 445.12,291.338 C449.19,302.138 444.374,298.738 451.994,307.378" style="stroke:#181818;stroke-width:1;stroke-dasharray:7,7;" fill="none" id="platform-to-core"/><polygon points="463.9,320.878,456.494,303.409,447.494,311.347,463.9,320.878" fill="none" style="stroke:#181818;stroke-width:1;stroke-linejoin:miter;stroke-miterlimit:10;"/><text x="446.12" y="287.235" fill="#000" font-size="13" textLength="70.395">EngineHost</text></g><!--link platform to input--><g class="link" data-entity-1="ent0004" data-entity-2="ent0003" id="lnk19" data-source-line="21" data-link-type="extension"><path d="M365.47,242.668 C328.66,259.648 288.43,285.128 265.12,321.338 C238.35,362.918 237.842,405.037 241.722,440.127" style="stroke:#181818;stroke-width:1;stroke-dasharray:7,7;" fill="none" id="platform-to-input"/><polygon points="243.7,458.018,247.685,439.468,235.758,440.786,243.7,458.018" fill="none" style="stroke:#181818;stroke-width:1;stroke-linejoin:miter;stroke-miterlimit:10;"/><text x="266.12" y="355.805" fill="#000" font-size="13" textLength="75.14">InputSource</text></g><!--link platform to awtrender--><g class="link" data-entity-1="ent0004" data-entity-2="ent0006" id="lnk20" data-source-line="22" data-link-type="dependency"><path d="M532.88,242.768 C601.3,265.768 692.351,296.375 760.731,319.365" style="stroke:#181818;stroke-width:1;stroke-dasharray:7,7;" fill="none" id="platform-to-awtrender"/><polygon points="765.47,320.958,758.214,314.298,760.731,319.365,755.665,321.881,765.47,320.958" fill="#181818" style="stroke:#181818;stroke-width:1;stroke-linejoin:miter;stroke-miterlimit:10;"/><text x="674.19" y="287.235" fill="#000" font-size="13" textLength="102.908">begin/end frame</text></g><!--link awtrender to render--><g class="link" data-entity-1="ent0006" data-entity-2="ent0005" id="lnk21" data-source-line="23" data-link-type="extension"><path d="M821.2,379.768 C809.5,394.738 800.89,413.128 811.12,428.478 C819.31,440.778 815.223,441.205 827.933,448.845" style="stroke:#181818;stroke-width:1;stroke-dasharray:7,7;" fill="none" id="awtrender-to-render"/><polygon points="843.36,458.118,831.024,443.702,824.841,453.987,843.36,458.118" fill="none" style="stroke:#181818;stroke-width:1;stroke-linejoin:miter;stroke-miterlimit:10;"/><text x="812.12" y="424.375" fill="#000" font-size="13" textLength="56.849">Renderer</text></g><!--link awtrender to assets--><g class="link" data-entity-1="ent0006" data-entity-2="ent0007" id="lnk22" data-source-line="24" data-link-type="dependency"><path d="M917.13,379.928 C952.17,394.688 995.84,412.848 1035.12,428.478 C1059.93,438.348 1082.474,447.027 1106.984,456.307" style="stroke:#181818;stroke-width:1;stroke-dasharray:7,7;" fill="none" id="awtrender-to-assets"/><polygon points="1111.66,458.078,1104.659,451.15,1106.984,456.307,1101.827,458.632,1111.66,458.078" fill="#181818" style="stroke:#181818;stroke-width:1;stroke-linejoin:miter;stroke-miterlimit:10;"/><text x="1036.12" y="424.375" fill="#000" font-size="13" textLength="148.993">cache-only sprite lookup</text></g><!--link render to math--><g class="link" data-entity-1="ent0005" data-entity-2="ent0008" id="lnk23" data-source-line="25" data-link-type="dependency"><path d="M986.19,516.898 C1009.44,535.178 1035.639,555.778 1058.929,574.088" style="stroke:#181818;stroke-width:1;stroke-dasharray:7,7;" fill="none" id="render-to-math"/><polygon points="1062.86,577.178,1058.257,568.471,1058.929,574.088,1053.313,574.76,1062.86,577.178" fill="#181818" style="stroke:#181818;stroke-width:1;stroke-linejoin:miter;stroke-miterlimit:10;"/></g><!--link assets to math--><g class="link" data-entity-1="ent0007" data-entity-2="ent0008" id="lnk24" data-source-line="26" data-link-type="dependency"><path d="M1166.57,516.898 C1152.68,535.178 1137.705,554.887 1123.795,573.197" style="stroke:#181818;stroke-width:1;stroke-dasharray:7,7;" fill="none" id="assets-to-math"/><polygon points="1120.77,577.178,1129.399,572.431,1123.795,573.197,1123.029,567.592,1120.77,577.178" fill="#181818" style="stroke:#181818;stroke-width:1;stroke-linejoin:miter;stroke-miterlimit:10;"/></g><!--link platform to math--><g class="link" data-entity-1="ent0004" data-entity-2="ent0008" id="lnk25" data-source-line="27" data-link-type="dependency"><path d="M345.1,242.828 C324.11,250.798 302.76,260.568 284.12,272.338 C168.72,345.178 6,415.938 98.12,516.608 C161.38,585.758 818.671,601.5 1029.821,604.8" style="stroke:#181818;stroke-width:1;stroke-dasharray:7,7;" fill="none" id="platform-to-math"/><polygon points="1034.82,604.878,1025.884,600.738,1029.821,604.8,1025.759,608.737,1034.82,604.878" fill="#181818" style="stroke:#181818;stroke-width:1;stroke-linejoin:miter;stroke-miterlimit:10;"/></g><!--link demo to math--><g class="link" data-entity-1="ent0001" data-entity-2="ent0008" id="lnk26" data-source-line="28" data-link-type="dependency"><path d="M1231.36,90.688 C1304.77,106.828 1374.12,140.948 1374.12,212.268 C1374.12,212.268 1374.12,212.268 1374.12,488.548 C1374.12,579.618 1249.863,600.599 1168.583,604.969" style="stroke:#181818;stroke-width:1;stroke-dasharray:7,7;" fill="none" id="demo-to-math"/><polygon points="1163.59,605.238,1172.792,608.749,1168.583,604.969,1172.362,600.761,1163.59,605.238" fill="#181818" style="stroke:#181818;stroke-width:1;stroke-linejoin:miter;stroke-miterlimit:10;"/></g><?plantuml-src RLJ1Rjim3BtxAuYUKxVRSOS16TPsBTQXg87raeiYqx5Mcn8akbc0VVmeAR6LTITRr7kFrDEpsV20yD3Sm7NzeRw6Ip2Z6t14Ocp1JyHcn2gy6dBAgn6q7PqbsMtu84IFcXNj1gpc3RXeSRGR-gucqds3p8PsOGLF7jyCxXkDX2luAfYrSuFHYesb2r018g_KqTRZXXu2tj3EH5BYFYfIE_GhoDLlDd1YHtJ9beadtj1zV3Hsybe4ye8Lo_kT6d6jv-O9NlBTeBYpVhnIUv5fzdAAs2iJdnJX80F5Qj4XAPs8fPX7Qj5lwCuhrnkzWkTKYCV8Ru-spUoCVC_DOzpA7U32lJN3WEsoVZ4UknAI98NvNbM5W1msj8xFsTF6USDutsPUWfIaKN6_eP-eFyQvjPZnlDkg18vRbV9iEgK5-IjWxRnrA1KC2H6EKQZYFKDTVvuhy0duu2Hlsb9dTfDFcLXmyMe5amO928fQ22oz5iJ9Sq6r65xPkYFQd2jb7mJrV0hkyKOMoEoMeFpHnl-BPNy4vZmELhMmnIvEccQRN9N6Zi2KBS45KYxqba5iWSxyndWEB81pun2J3auPYWP5NzYBhzLyphh-C_koV0Z_x9_w5Waj4UTdtQAeNCaAKeAgPIzf5SvbJyu0XHbQwHulBGq722bDC5ZxAdOKu1oMp9ZNPvEboknqMf4LhQrbjYFOBd_lFooyM3-qArZVW_LmyoOv_JB5VucBxKWVwYhzDa0Cf7o38IUedxYrUue_ER04t1zlBXhElKVLrbMq8_Rz2m00?></g></svg>